<svg id="Layer_1" data-name="Layer 1" xmlns="http://www.w3.org/2000/svg" fill="#e2e7ec" viewBox="-200 -200 1340 956">
  <defs>
    <style>
      .cls-1 {
        fill: #fff0;
      }
    </style>
  </defs>
  <title>hillhacks</title>
  <g>
    <path class="cls-1" d="M940,556H0V0H940ZM653.81,394.5a7.05,7.05,0,0,0-.38-1.42q-77.92-94-155.89-188t-156-188c-8.26-10-15.76-9.77-24.08.33q-35.42,42.94-71,85.75-54.49,65.68-109,131.35-44.29,53.4-88.55,106.84Q34.57,358.69,20.29,376a10.92,10.92,0,0,0-1.67,12.14c1.92,4.24,5.58,6,10,6.28,1.49.1,3,.07,4.5.07H653.81ZM664,374.43c4.89,6,9.07,10.7,12.81,15.76,2.43,3.28,5.19,4.41,9.26,4.4,47.66-.14,95.32-.09,143-.09q42.24,0,84.48,0c5.21,0,9.55-1.36,11.83-6.52s.75-9.29-2.66-13.31C917,368,911.49,361.1,905.86,354.32q-54.4-65.51-108.82-131-51.19-61.68-102.35-123.4a17.7,17.7,0,0,0-5.28-4.44c-5.68-2.91-11.1-1.15-16.11,4.88q-44.52,53.55-89,107.12C574.54,219.22,564.87,231,555,243.05l13,15.55L639,173c1.27,1.41,2.27,2.45,3.2,3.56q16.77,20.15,33.53,40.32c11.17,13.44,22.53,26.73,33.28,40.51,2,2.57,2,7.1,1.94,10.73,0,1-3.15,2.2-5,3-17.72,7.44-28.88,25.48-26.65,43.23,2.63,20.87,16.91,35.35,37.54,38,20.26,2.65,40.37-11.11,45.27-31,5.32-21.57-5.51-43.15-25.66-50.19-4.38-1.53-5.81-3.61-5.17-7.85,1.12-7.46-1.79-13.21-6.63-18.93C702.62,218.36,681,192,659.2,165.7c-7-8.5-7.08-8.54-.09-17,8.22-10,16.53-19.86,25.12-30.17L896.5,374.43ZM500.06,539V418.52H476v47.85H435.68V418.24H411.85V538.89H436V491.22h40.43V539Zm-393.79,0V418.31h-24v48.08H41.84v-48H18.14V538.7H42.22V491.22H82.53V539Zm737.29.16c-1.53-2.38-2.38-3.8-3.32-5.15-11.73-16.77-23.38-33.61-35.29-50.25-2.19-3.06-2.27-5.18-.35-8.34,6.74-11.09,13.16-22.37,19.68-33.59,4.47-7.69,8.91-15.41,13.73-23.74-8.6,0-16.25.16-23.88-.08-3.1-.09-4.79,1-6.27,3.64-6.63,11.73-13.42,23.37-20.18,35-2.59,4.47-5.26,8.9-7.89,13.35l-1.06-.38V418.48H755.12V538.87h24V488.93c1.63,2.24,2.51,3.41,3.35,4.61,9.78,14.07,19.53,28.17,29.39,42.2,1,1.37,2.55,3.21,3.9,3.25C824.73,539.28,833.68,539.14,843.56,539.14ZM735.54,435c-19.84-20.57-59.39-26.48-85.88.09a61.37,61.37,0,0,0,2.43,89.49c27.16,24.43,66.39,17.32,83.55-2.15l-16.63-17c-18.87,16.78-41.79,10.54-52.52-.95-12.8-13.72-13.86-34.3-2.08-48.79,13.39-16.48,32-17.72,54.27-3.86Zm-161.6-19.3-55.17,123.5c3.68,0,6.5,0,9.32,0,5.49-.06,12.16,1.73,16.14-.76s5.31-9.18,7.43-14.2c1.07-2.56,2.42-3.49,5.17-3.43,7.83.17,15.76.85,23.47-.13,10.82-1.37,17.78,1.71,20,13a8.44,8.44,0,0,0,1.73,3.57,5,5,0,0,0,3,1.91c7.76.16,15.53.09,24.08.09C610.74,497.91,592.61,457.38,573.94,415.67Zm350.81,33.14c-3.47-19.52-18.78-32.26-37.53-31.73-27.12.77-44.59,30.34-31.13,52.95,6,10.13,15.76,15.38,26.73,18.73,4.6,1.4,9.3,2.72,13.56,4.86,6.11,3.07,7.66,9.77,4.13,15.24S888.79,517.33,883,514c-3.92-2.22-6.88-6.11-11.33-10.23L850,508.42c3.13,15.06,12,24.71,25.88,29.46,14.84,5.09,28.38,1.87,39.69-8.86,17.28-16.39,15.1-41.17-4.72-53-5.33-3.19-11.65-4.71-17.46-7.13-4.11-1.71-8.38-3.26-12.12-5.6a10.73,10.73,0,0,1-4.46-13.08,12.21,12.21,0,0,1,11.81-8.33c7.65.16,10.93,5.22,12.63,12ZM176.63,538.9H249v-24H200.65V418.33h-24Zm115.09-23.84V418.35H268.05V538.87h72.32V515.06ZM153.31,539V418.46H129.72V539Z" transform="translate(0 0)"/>
    <path d="M653.81,394.5H33.14c-1.5,0-3,0-4.5-.07-4.44-.31-8.1-2-10-6.28A10.92,10.92,0,0,1,20.29,376q14.28-17.34,28.62-34.62Q93.18,288,137.46,234.55q54.51-65.69,109-131.35,35.55-42.84,71-85.75c8.32-10.1,15.82-10.28,24.08-.33q78,94,156,188t155.89,188A7.05,7.05,0,0,1,653.81,394.5Zm-269.16-231c.56.81,1,1.52,1.49,2.15l34.76,41.88q41.46,50,83,99.9a16.92,16.92,0,0,1,4.23,11.81c-.22,14.33-.08,28.66-.08,43v11.88H611.64L329.72,34.2,235.61,147.63c1.07,1.33,1.88,2.36,2.72,3.37l36.36,43.82q31.1,37.47,62.27,74.87a5.54,5.54,0,0,0,4.79,1.47c31.62-11.4,61.9,13,57.33,46.28-2.75,20-21.14,35.37-42.13,35.26-20.19-.11-38.31-15.85-41.09-35.34a43.85,43.85,0,0,1,7.71-32.29l-101-121.73L47.68,374.21H192.07c0-6.24-.23-12.21.09-18.15.2-3.48-1.06-4.82-4.26-5.93-21.32-7.4-32.61-30.14-26.08-52.05,6.44-21.58,28.46-33.87,50.85-28.39a42,42,0,0,1,30.92,48.53C240.47,334,231,344.61,216,350.43c-1.53.59-3.67,2.23-3.74,3.49-.38,6.61-.18,13.25-.18,20.21H488c0-17.84.05-35.31-.09-52.77,0-1.44-1.08-3.07-2.08-4.27q-57-68.83-114.11-137.63c-1.84-2.22-3.19-2.78-6.2-1.71-31.13,11.05-60.83-13.26-56.57-46.13,2.47-19,19.26-34.14,39.35-35.46,19.07-1.25,38,12.11,42.75,30.13Q396.35,146.31,384.65,163.46Zm-4.95,147A22.2,22.2,0,1,0,358,332.69,22.19,22.19,0,0,0,379.7,310.51ZM351,160.44a22.14,22.14,0,0,0,21.77-22.55A22.23,22.23,0,1,0,351,160.44ZM224.16,311a22.09,22.09,0,1,0-22.54,21.71A21.92,21.92,0,0,0,224.16,311Z" transform="translate(0 0)"/>
    <path d="M664,374.43H896.5L684.23,118.53c-8.59,10.31-16.9,20.21-25.12,30.17-7,8.46-7,8.5.09,17C681,192,702.62,218.36,724.66,244.42c4.84,5.72,7.75,11.47,6.63,18.93-.64,4.24.79,6.32,5.17,7.85,20.15,7,31,28.62,25.66,50.19-4.9,19.87-25,33.63-45.27,31-20.63-2.69-34.91-17.17-37.54-38-2.23-17.75,8.93-35.79,26.65-43.23,1.85-.77,5-2,5-3,0-3.63.08-8.16-1.94-10.73-10.75-13.78-22.11-27.07-33.28-40.51S653.39,190,642.21,176.57c-.93-1.11-1.93-2.15-3.2-3.56L568,258.6l-13-15.55c9.89-12,19.56-23.83,29.31-35.58q44.48-53.58,89-107.12c5-6,10.43-7.79,16.11-4.88a17.7,17.7,0,0,1,5.28,4.44Q745.92,161.58,797,223.31q54.38,65.54,108.82,131c5.63,6.78,11.17,13.66,16.89,20.37,3.41,4,4.89,8.27,2.66,13.31s-6.62,6.52-11.83,6.52q-42.24-.06-84.48,0c-47.67,0-95.33-.05-143,.09-4.07,0-6.83-1.12-9.26-4.4C673.11,385.13,668.93,380.4,664,374.43Zm79.58-63.85a22.22,22.22,0,1,0-22.28,22.11A22.18,22.18,0,0,0,743.62,310.58Z" transform="translate(0 0)"/>
    <path d="M500.06,539H476.39V491.22H436v47.67H411.85V418.24h23.83v48.13H476V418.52h24.09Z" transform="translate(0 0)"/>
    <path d="M106.27,539H82.53V491.22H42.22V538.7H18.14V418.43h23.7v48H82.3V418.31h24Z" transform="translate(0 0)"/>
    <path d="M843.56,539.14c-9.88,0-18.83.14-27.76-.15-1.35,0-2.94-1.88-3.9-3.25-9.86-14-19.61-28.13-29.39-42.2-.84-1.2-1.72-2.37-3.35-4.61v49.94h-24V418.48h23.61v51.14l1.06.38c2.63-4.45,5.3-8.88,7.89-13.35,6.76-11.65,13.55-23.29,20.18-35,1.48-2.62,3.17-3.73,6.27-3.64,7.63.24,15.28.08,23.88.08-4.82,8.33-9.26,16.05-13.73,23.74-6.52,11.22-12.94,22.5-19.68,33.59-1.92,3.16-1.84,5.28.35,8.34,11.91,16.64,23.56,33.48,35.29,50.25C841.18,535.34,842,536.76,843.56,539.14Z" transform="translate(0 0)"/>
    <path d="M735.54,435l-16.86,16.81c-22.24-13.86-40.88-12.62-54.27,3.86-11.78,14.49-10.72,35.07,2.08,48.79,10.73,11.49,33.65,17.73,52.52.95l16.63,17c-17.16,19.47-56.39,26.58-83.55,2.15a61.37,61.37,0,0,1-2.43-89.49C676.15,408.49,715.7,414.4,735.54,435Z" transform="translate(0 0)"/>
    <path d="M573.94,415.67c18.67,41.71,36.8,82.24,55.26,123.49-8.55,0-16.32.07-24.08-.09a5,5,0,0,1-3-1.91,8.44,8.44,0,0,1-1.73-3.57c-2.26-11.24-9.22-14.32-20-13-7.71,1-15.64.3-23.47.13-2.75-.06-4.1.87-5.17,3.43-2.12,5-3.51,11.74-7.43,14.2s-10.65.7-16.14.76c-2.82,0-5.64,0-9.32,0Zm.07,58-11,25.39h21.9C581.36,490.79,578,482.94,574,473.69Z" transform="translate(0 0)"/>
    <path d="M924.75,448.81l-23.48,5.05c-1.7-6.79-5-11.85-12.63-12a12.21,12.21,0,0,0-11.81,8.33,10.73,10.73,0,0,0,4.46,13.08c3.74,2.34,8,3.89,12.12,5.6,5.81,2.42,12.13,3.94,17.46,7.13,19.82,11.86,22,36.64,4.72,53-11.31,10.73-24.85,14-39.69,8.86-13.88-4.75-22.75-14.4-25.88-29.46l21.62-4.61c4.45,4.12,7.41,8,11.33,10.23,5.82,3.29,13.94.42,17.54-5.18s2-12.17-4.13-15.24c-4.26-2.14-9-3.46-13.56-4.86-11-3.35-20.7-8.6-26.73-18.73-13.46-22.61,4-52.18,31.13-52.95C906,416.55,921.28,429.29,924.75,448.81Z" transform="translate(0 0)"/>
    <path d="M176.63,538.9V418.33h24v96.54H249v24Z" transform="translate(0 0)"/>
    <path d="M291.72,515.06h48.65v23.81H268.05V418.35h23.67Z" transform="translate(0 0)"/>
    <path d="M153.31,539H129.72V418.46h23.59Z" transform="translate(0 0)"/>
    <path class="cls-1" d="M384.65,163.46q11.72-17.18,6.39-37.17c-4.77-18-23.68-31.38-42.75-30.13-20.09,1.32-36.88,16.45-39.35,35.46-4.26,32.87,25.44,57.18,56.57,46.13,3-1.07,4.36-.51,6.2,1.71q57,68.85,114.11,137.63c1,1.2,2.07,2.83,2.08,4.27.14,17.46.09,34.93.09,52.77H212.08c0-7-.2-13.6.18-20.21.07-1.26,2.21-2.9,3.74-3.49,15-5.82,24.47-16.43,27.59-32.21a42,42,0,0,0-30.92-48.53c-22.39-5.48-44.41,6.81-50.85,28.39-6.53,21.91,4.76,44.65,26.08,52.05,3.2,1.11,4.46,2.45,4.26,5.93-.32,5.94-.09,11.91-.09,18.15H47.68l174.9-210.87,101,121.73a43.85,43.85,0,0,0-7.71,32.29c2.78,19.49,20.9,35.23,41.09,35.34,21,.11,39.38-15.29,42.13-35.26,4.57-33.3-25.71-57.68-57.33-46.28a5.54,5.54,0,0,1-4.79-1.47q-31.26-37.33-62.27-74.87L238.33,151c-.84-1-1.65-2-2.72-3.37L329.72,34.2,611.64,374.07H508V362.19c0-14.33-.14-28.66.08-43a16.92,16.92,0,0,0-4.23-11.81q-41.53-49.89-83-99.9l-34.76-41.88C385.62,165,385.21,164.27,384.65,163.46Z" transform="translate(0 0)"/>
    <path class="cls-1" d="M379.7,310.51A22.2,22.2,0,1,1,358,288.31,22.19,22.19,0,0,1,379.7,310.51Z" transform="translate(0 0)"/>
    <path class="cls-1" d="M351,160.44a22.18,22.18,0,1,1,21.77-22.55A22.17,22.17,0,0,1,351,160.44Z" transform="translate(0 0)"/>
    <path class="cls-1" d="M224.16,311a22.09,22.09,0,1,1-21.57-22.67A22,22,0,0,1,224.16,311Z" transform="translate(0 0)"/>
    <path class="cls-1" d="M743.62,310.58a22.22,22.22,0,1,1-22.15-22.28A22.15,22.15,0,0,1,743.62,310.58Z" transform="translate(0 0)"/>
    <path class="cls-1" d="M574,473.69c4,9.25,7.35,17.1,10.91,25.39H563Z" transform="translate(0 0)"/>
  </g>
</svg>
