<svg id="Layer_1" data-name="Layer 1" fill="#e2e7ec"
    xmlns="http://www.w3.org/2000/svg" viewBox="0 0 799.08 776.2">
    <defs>
        <style>.cls-1{fill:#fff0;}</style>
    </defs>
    <title>photoshop</title>
    <path d="M808.76,144.33v509.9c-.64.87-1.67,1.66-1.86,2.62-2,10.24-3.09,20.78-6.1,30.73-8.32,27.49-24,50.18-46.64,68.15-21.46,17-45.52,27.21-72.83,29.81-.76.07-1.42,1.2-2.12,1.84h-540c-.87-.64-1.68-1.69-2.62-1.84-3.36-.55-6.83-.52-10.16-1.19-33.37-6.75-61.58-22.66-83.19-49-18.68-22.73-29.75-48.91-31.74-78.56-.06-.91-1.21-1.74-1.85-2.61V144.33c.64-1,1.68-2,1.86-3.11,1.2-7.33,1.51-14.87,3.39-22,8.16-30.83,24.45-56.63,49.62-76.47,22-17.34,46.9-27.64,75-29.73.92-.06,1.75-1.2,2.62-1.84h534c.7.64,1.35,1.72,2.13,1.82,2.11.28,4.31-.13,6.4.21a153.76,153.76,0,0,1,49.36,16.44C758.24,42.74,776.64,61.5,790,85.19a131.83,131.83,0,0,1,17,57C807,143,808.12,143.62,808.76,144.33ZM262.18,449.23c4.18,0,7.62-.13,11.06,0,29.92,1.34,59.64.46,88.49-8.73s51.42-26.29,66.1-52.91c11.27-20.46,14.47-42.84,13.33-65.79C439,278.15,419.43,245.08,379.83,225c-23.2-11.79-48.27-16.36-74-16.28-37.23.12-74.46,1.19-111.68,1.71-4.78.07-4.69,2.89-4.69,6.21q0,168.38,0,336.75c0,6.34.51,6.88,6.64,6.88q29.42,0,58.83,0c6.42,0,7.25-.89,7.25-7.55q0-48.57,0-97.13Zm214.41,67.95c0,9,.13,18.08-.06,27.12-.09,4.39,1.6,7.26,5.7,8.72,6.8,2.43,13.48,5.34,20.44,7.15,24.27,6.31,49,8,74,6.21,18.24-1.32,35.72-5.45,52-14,51.56-27,58.61-103.87,4-133.65-14.52-7.91-29.84-14.42-44.95-21.22-12-5.38-24.65-9.37-34.84-18.07-4.46-3.82-7.16-8.64-5.59-14.83,1.67-6.56,6.11-10.2,12.55-11.86,13.86-3.58,27.81-2.49,41.7-.68,16.22,2.12,31.91,6.18,46.67,13.54,5.46,2.72,8.26.52,8.26-5.7,0-14.63.11-29.26,0-43.88-.12-13.74,2.63-13.09-13.61-18.13-19.73-6.12-40.18-7-60.61-7.14-20.05-.13-39.76,2.25-58.14,11.23-27.63,13.5-44.1,35.12-46.61,65.91-2.54,31.12,11.94,53.86,37.44,70.57,15.94,10.44,33.6,17.11,51.06,24.37,9.16,3.81,18.44,8.27,26.19,14.31,10,7.78,7,20.94-5,25.24A62.59,62.59,0,0,1,569.37,506a161.38,161.38,0,0,1-85.94-19.64c-5.54-3-6.81-2.26-6.83,4.16C476.56,499.43,476.59,508.31,476.59,517.18Z" transform="translate(-9.68 -11.18)"/>
    <path class="cls-1" d="M808.76,144.33c-.64-.71-1.8-1.38-1.84-2.12a131.83,131.83,0,0,0-17-57c-13.31-23.69-31.71-42.45-55.82-55.54a153.76,153.76,0,0,0-49.36-16.44c-2.09-.34-4.29.07-6.4-.21-.78-.1-1.43-1.18-2.13-1.82H808.76Z" transform="translate(-9.68 -11.18)"/>
    <path class="cls-1" d="M142.2,11.18c-.87.64-1.7,1.78-2.62,1.84-28.13,2.09-53,12.39-75,29.73C39.38,62.59,23.09,88.39,14.93,119.22c-1.88,7.13-2.19,14.67-3.39,22-.18,1.11-1.22,2.07-1.86,3.11V11.18Z" transform="translate(-9.68 -11.18)"/>
    <path class="cls-1" d="M9.68,654.23c.64.87,1.79,1.7,1.85,2.61,2,29.65,13.06,55.83,31.74,78.56,21.61,26.29,49.82,42.2,83.19,49,3.33.67,6.8.64,10.16,1.19.94.15,1.75,1.2,2.62,1.84H9.68Z" transform="translate(-9.68 -11.18)"/>
    <path class="cls-1" d="M679.21,787.38c.7-.64,1.36-1.77,2.12-1.84,27.31-2.6,51.37-12.79,72.83-29.81,22.67-18,38.32-40.66,46.64-68.15,3-10,4.05-20.49,6.1-30.73.19-1,1.22-1.75,1.86-2.62V787.38Z" transform="translate(-9.68 -11.18)"/>
    <path class="cls-1" d="M262.18,449.23v6.32q0,48.56,0,97.13c0,6.66-.83,7.55-7.25,7.55q-29.42,0-58.83,0c-6.13,0-6.64-.54-6.64-6.88q0-168.37,0-336.75c0-3.32-.09-6.14,4.69-6.21,37.22-.52,74.45-1.59,111.68-1.71,25.76-.08,50.83,4.49,74,16.28,39.6,20.12,59.17,53.19,61.33,96.86,1.14,22.95-2.06,45.33-13.33,65.79-14.68,26.62-37.3,43.74-66.1,52.91s-58.57,10.07-88.49,8.73C269.8,449.1,266.36,449.23,262.18,449.23Zm.41-63.82a31.39,31.39,0,0,0,3.54.65c21.29,1.39,42.48,1.36,63.14-5.07,30.67-9.54,41-30,38.84-58.17a48.06,48.06,0,0,0-12.7-29.8,52.07,52.07,0,0,0-34.34-16.63c-18.63-1.65-37.44-1.31-56.18-1.78a8.67,8.67,0,0,0-2.3.59Z" transform="translate(-9.68 -11.18)"/>
    <path class="cls-1" d="M476.59,517.18c0-8.87,0-17.75,0-26.62,0-6.42,1.29-7.16,6.83-4.16A161.38,161.38,0,0,0,569.37,506a62.59,62.59,0,0,0,17.78-3.63c12-4.3,15-17.46,5-25.24-7.75-6-17-10.5-26.19-14.31-17.46-7.26-35.12-13.93-51.06-24.37-25.5-16.71-40-39.45-37.44-70.57,2.51-30.79,19-52.41,46.61-65.91,18.38-9,38.09-11.36,58.14-11.23,20.43.13,40.88,1,60.61,7.14,16.24,5,13.49,4.39,13.61,18.13.13,14.62,0,29.25,0,43.88,0,6.22-2.8,8.42-8.26,5.7-14.76-7.36-30.45-11.42-46.67-13.54-13.89-1.81-27.84-2.9-41.7.68-6.44,1.66-10.88,5.3-12.55,11.86-1.57,6.19,1.13,11,5.59,14.83,10.19,8.7,22.87,12.69,34.84,18.07,15.11,6.8,30.43,13.31,44.95,21.22,54.64,29.78,47.59,106.69-4,133.65-16.31,8.53-33.79,12.66-52,14-25,1.8-49.71.1-74-6.21-7-1.81-13.64-4.72-20.44-7.15-4.1-1.46-5.79-4.33-5.7-8.72C476.72,535.26,476.59,526.22,476.59,517.18Z" transform="translate(-9.68 -11.18)"/>
    <path d="M262.59,385.41V275.2a8.67,8.67,0,0,1,2.3-.59c18.74.47,37.55.13,56.18,1.78A52.07,52.07,0,0,1,355.41,293a48.06,48.06,0,0,1,12.7,29.8c2.11,28.16-8.17,48.63-38.84,58.17-20.66,6.43-41.85,6.46-63.14,5.07A31.39,31.39,0,0,1,262.59,385.41Z" transform="translate(-9.68 -11.18)"/>
</svg>