<svg id="stapleslogo" fill="#e2e7ec"
    xmlns="http://www.w3.org/2000/svg" viewBox="0 0 572.46 121.97">
    <defs>
        <style>.cls-1{fill:#fff0;}</style>
    </defs>
    <title>staples</title>
    <path class="cls-1" d="M573.46,125C374.48,125,200,124,1,124V81a13.87,13.87,0,0,1,1.86,2.66A29.82,29.82,0,0,0,18,100.24c14.57,6.94,29.05,6.16,43-1.65a25.63,25.63,0,0,0,7.64-7C77.3,80,73.49,64.94,60.29,59.1c-4.66-2.07-9.77-3.23-14.77-4.44-5.65-1.37-11.5-2-17.06-3.63-1.93-.57-4.55-3.21-4.51-4.86s2.51-4.5,4.44-5.08c7.68-2.29,15.43-3.26,21.6,3.83A3.23,3.23,0,0,0,52.06,46c6.1.09,12.2.05,19.21.05-1.4-3.4-2.16-6.14-3.54-8.5C56.64,18.66,22.24,16.27,8.45,33.39-.69,44.74,2.63,59.39,16,65.27c4.52,2,9.46,3.11,14.29,4.3,6.13,1.52,12.44,2.39,18.45,4.24,1.78.56,3.89,3.47,3.93,5.34S50.83,83.8,49,84.8c-8.21,4.54-20.31,2-26.49-5a5.76,5.76,0,0,0-3.58-2C13,77.64,7,77.87,1,78V3H86V28.89c-3.06,0-5.09-.34-6.93.12-1.2.29-3,1.68-3,2.67-.31,4.75-.14,9.54-.14,14.4l9.58.57c0,2.24,0,4.2,0,6.16.08,7.48-.26,15,.36,22.45,1.56,19,17,31.21,34.18,27.17V85.31c-10.27-1.25-13.94-3.62-14.4-10.92-.57-9.08-.14-18.22-.14-28H120V28.75H105V3H303q-.06,49.23-.1,98.46a4,4,0,0,0,.48,1.29h18.92c.08-1.36.2-2.34.2-3.33q0-46.23,0-92.47A33.2,33.2,0,0,0,322,3c92,0,159.51,1,251.5,1M214.93,123.09h19.79V95.61L238,98c9.92,7.11,20.66,8.9,32.11,4.51,21-8,31.27-34.24,22.24-56C281.76,21,252.85,15.12,235.51,31c-.3.27-.89.22-1.6.38-.23-2.4-.43-4.65-.69-7.42-4.47,0-8.77.29-13-.08-4.41-.37-5.64,1.12-5.61,5.56.19,29.45.1,58.91.11,88.37C214.7,119.45,214.84,121.07,214.93,123.09ZM184.75,32.14c-8.21-6.89-16.29-10.29-25.69-9.6-9.6.69-17.51,4.78-24,11.77C123,47.23,119.46,68.57,128.66,84c14.14,23.77,33.7,27.26,56.76,11.87.26,2.79.45,4.87.63,6.85h18.07V24c-4,0-7.7.14-11.34,0C187.94,23.72,183.07,23.22,184.75,32.14Zm165.1,39.08h6.22q24.72,0,49.46-.08c2.14,0,4.36.42,4.51-3C411.58,34,386,18.36,363.14,22.64a41.83,41.83,0,0,0-32.52,32.13c-3.49,17.18,3.51,34.38,17.7,43.53s32.72,8.91,46.06-.84c6.39-4.67,11.05-10.66,13.07-19.07-4.28,0-7.94.2-11.57,0-5.34-.37-9.54.64-13.66,4.92-5.45,5.67-13,5.59-20.09,2.9C355.75,83.73,351.52,79.05,349.85,71.22ZM482.61,46.43a64.45,64.45,0,0,0-2-6.17,28.92,28.92,0,0,0-14.5-14.49c-14.36-6.93-34.37-4.32-44.36,5.86-11.17,11.38-8.11,27.64,6.57,33.83a89.48,89.48,0,0,0,13.84,4.07c6,1.44,12.13,2.19,18,4,1.95.61,4.33,3.67,4.32,5.6S462.17,84,460.17,85c-8.29,4-19.3,1.66-25.77-4.9-.78-.79-1.79-1.88-2.72-1.91-6.05-.17-12.11-.09-19.13-.09,1.53,3.82,2.36,6.89,3.89,9.56,11.6,20.29,48.31,23.15,63,5,9.75-12,5.65-28.71-8.76-34-6.34-2.32-13.16-3.34-19.79-4.88-3.72-.87-7.61-1.2-11.14-2.53-1.85-.69-4.22-3-4.26-4.61s2.11-4.07,3.89-5c6.77-3.48,16.5-1.69,22.11,3.52A4.24,4.24,0,0,0,464,46.37C470,46.48,475.91,46.43,482.61,46.43Zm29.78,18.33V17h15.73V4c-5.23,0-10,0-14.86,0-8.63.07-14.2,5.17-14.32,13.82-.21,15.46-.17,30.93,0,46.4.07,6.48,4.51,12.37,10.33,13,6.36.66,12.84.15,19.69.15,0-2.95-.2-5.6,0-8.21.35-3.66-1.31-4.61-4.66-4.43C520.42,64.93,516.46,64.76,512.39,64.76ZM543,77.69c4.92,0,9.23,0,13.53,0a39.48,39.48,0,0,0,4.49-.12c6.12-.71,11.26-5.61,11.37-12q.4-24.7,0-49.42c-.1-6.14-5-11.47-10.82-11.94-6.07-.49-12.21-.11-18.76-.11,0,3.4.13,6.36,0,9.31s1.15,3.76,3.86,3.66c4.12-.14,8.25,0,12.53,0v48H543Z" transform="translate(-1 -3)"/>
    <path d="M1,78c6-.12,12-.35,18-.25a5.76,5.76,0,0,1,3.58,2c6.18,7,18.28,9.56,26.49,5,1.81-1,3.69-3.75,3.65-5.65s-2.15-4.78-3.93-5.34c-6-1.85-12.32-2.72-18.45-4.24-4.83-1.19-9.77-2.31-14.29-4.3C2.63,59.39-.69,44.74,8.45,33.39c13.79-17.12,48.19-14.73,59.28,4.2,1.38,2.36,2.14,5.1,3.54,8.5-7,0-13.11,0-19.21-.05A3.23,3.23,0,0,1,50,44.92c-6.17-7.09-13.92-6.12-21.6-3.83-1.93.58-4.4,3.3-4.44,5.08s2.58,4.29,4.51,4.86c5.56,1.64,11.41,2.26,17.06,3.63,5,1.21,10.11,2.37,14.77,4.44,13.2,5.84,17,20.85,8.34,32.45a25.63,25.63,0,0,1-7.64,7c-14,7.81-28.45,8.59-43,1.65A29.82,29.82,0,0,1,2.86,83.65,13.87,13.87,0,0,0,1,81Z" transform="translate(-1 -3)"/>
    <path d="M105,3V28.75h15V46.4H105.47c0,9.77-.43,18.91.14,28,.46,7.3,4.13,9.67,14.4,10.92v17.12c-17.13,4-32.62-8.13-34.18-27.17-.62-7.44-.28-15-.36-22.45,0-2,0-3.92,0-6.16l-9.58-.57c0-4.86-.17-9.65.14-14.4.07-1,1.83-2.38,3-2.67,1.84-.46,3.87-.12,6.93-.12V3Z" transform="translate(-1 -3)"/>
    <path d="M322,3a33.2,33.2,0,0,1,.46,4q.06,46.23,0,92.47c0,1-.12,2-.2,3.33H303.34a4,4,0,0,1-.48-1.29q0-49.23.1-98.46Z" transform="translate(-1 -3)"/>
    <path d="M214.93,123.09c-.09-2-.23-3.64-.23-5.27,0-29.46.08-58.92-.11-88.37,0-4.44,1.2-5.93,5.61-5.56,4.25.37,8.55.08,13,.08.26,2.77.46,5,.69,7.42.71-.16,1.3-.11,1.6-.38,17.34-15.89,46.25-10,56.87,15.52,9,21.73-1.25,47.93-22.24,56C258.69,106.89,248,105.1,238,98l-3.31-2.38v27.48Zm19.8-63.75c0,15.57,7.55,25.4,17.81,26.74s19.59-5.19,22.21-15.84c2.31-9.35.72-18-6.77-24.6-6.22-5.49-13.47-6.32-20.91-2.74C238.81,46.88,234.81,53.76,234.73,59.34Z" transform="translate(-1 -3)"/>
    <path d="M184.75,32.14c-1.68-8.92,3.19-8.42,8-8.2,3.64.17,7.3,0,11.34,0v78.79H186.05c-.18-2-.37-4.06-.63-6.85C162.36,111.3,142.8,107.81,128.66,84,119.46,68.57,123,47.23,135,34.31c6.53-7,14.44-11.08,24-11.77C168.46,21.85,176.54,25.25,184.75,32.14ZM143.55,63.7c-.09,17.09,15.18,27.77,29.31,20.32,8.32-4.39,12.07-11.67,11.61-21S180,46.24,171.15,42.41C157.72,36.59,143.64,47.57,143.55,63.7Z" transform="translate(-1 -3)"/>
    <path d="M349.85,71.22c1.67,7.83,5.9,12.51,12.28,14.94,7.08,2.69,14.64,2.77,20.09-2.9,4.12-4.28,8.32-5.29,13.66-4.92,3.63.25,7.29,0,11.57,0-2,8.41-6.68,14.4-13.07,19.07-13.34,9.75-31.84,10-46.06.84S327.13,72,330.62,54.77a41.83,41.83,0,0,1,32.52-32.13C386,18.36,411.58,34,410,68.14c-.15,3.42-2.37,3-4.51,3q-24.73.06-49.46.08ZM389.2,54.66c-1.95-9.41-9.65-15-19.86-14.8-9.11.2-16.82,6.36-18.21,14.8Z" transform="translate(-1 -3)"/>
    <path d="M482.61,46.43c-6.7,0-12.65,0-18.6-.06a4.24,4.24,0,0,1-2.48-1.26c-5.61-5.21-15.34-7-22.11-3.52-1.78.92-3.94,3.33-3.89,5s2.41,3.92,4.26,4.61c3.53,1.33,7.42,1.66,11.14,2.53,6.63,1.54,13.45,2.56,19.79,4.88,14.41,5.3,18.51,22,8.76,34-14.73,18.15-51.44,15.29-63-5-1.53-2.67-2.36-5.74-3.89-9.56,7,0,13.08-.08,19.13.09.93,0,1.94,1.12,2.72,1.91,6.47,6.56,17.48,8.93,25.77,4.9,2-1,4.26-3.81,4.26-5.79s-2.37-5-4.32-5.6c-5.83-1.84-12-2.59-18-4a89.48,89.48,0,0,1-13.84-4.07c-14.68-6.19-17.74-22.45-6.57-33.83,10-10.18,30-12.79,44.36-5.86a28.92,28.92,0,0,1,14.5,14.49A64.45,64.45,0,0,1,482.61,46.43Z" transform="translate(-1 -3)"/>
    <path d="M512.39,64.76c4.07,0,8,.17,12-.05,3.35-.18,5,.77,4.66,4.43-.25,2.61,0,5.26,0,8.21-6.85,0-13.33.51-19.69-.15-5.82-.6-10.26-6.49-10.33-13-.17-15.47-.21-30.94,0-46.4.12-8.65,5.69-13.75,14.32-13.82,4.82,0,9.63,0,14.86,0V17H512.39Z" transform="translate(-1 -3)"/>
    <path d="M543,77.69V65.05h16.15V17c-4.28,0-8.41-.11-12.53,0-2.71.1-4-.75-3.86-3.66s0-5.91,0-9.31c6.55,0,12.69-.38,18.76.11,5.84.47,10.72,5.8,10.82,11.94q.38,24.71,0,49.42c-.11,6.39-5.25,11.29-11.37,12a39.48,39.48,0,0,1-4.49.12C552.21,77.7,547.9,77.69,543,77.69Z" transform="translate(-1 -3)"/>
    <path class="cls-1" d="M234.73,59.34c.08-5.58,4.08-12.46,12.34-16.44,7.44-3.58,14.69-2.75,20.91,2.74,7.49,6.63,9.08,15.25,6.77,24.6-2.62,10.65-12,17.18-22.21,15.84S234.73,74.91,234.73,59.34Z" transform="translate(-1 -3)"/>
    <path class="cls-1" d="M143.55,63.7c.09-16.13,14.17-27.11,27.6-21.29C180,46.24,184,53.62,184.47,63s-3.29,16.62-11.61,21C158.73,91.47,143.46,80.79,143.55,63.7Z" transform="translate(-1 -3)"/>
    <path class="cls-1" d="M389.2,54.66H351.13c1.39-8.44,9.1-14.6,18.21-14.8C379.55,39.64,387.25,45.25,389.2,54.66Z" transform="translate(-1 -3)"/>
</svg>