<svg id="Layer_1" data-name="Layer 1" fill="#e2e7ec"
    xmlns="http://www.w3.org/2000/svg" viewBox="-100 -100 651.94 719.93">
    <title>yrhacks</title>
    <path d="M17,405V145l2.91-1.72c16.6-9.63,33.16-19.31,49.79-28.89C85.76,105.13,101.9,96,118,86.8q23.67-13.59,47.3-27.3c16.33-9.43,32.75-18.71,48.94-28.38C223.15,25.77,232.67,21.39,241,15h4c.25.38.41.92.77,1.12Q266.38,28,287.06,39.87c17.9,10.28,35.82,20.51,53.69,30.84,18.44,10.66,36.81,21.42,55.23,32.1,19,11,37.93,22.1,57,32.89,5.2,2.93,9.9,6.92,15.92,8.28V406c-1.49-.7-2.61.39-3.66,1-15.91,9.21-31.74,18.56-47.66,27.75-22.75,13.12-45.6,26.08-68.34,39.21q-40.74,23.5-81.33,47.23c-7.7,4.53-15.92,8.2-23,13.79h-4c-.06-1.32-1.37-1.24-2.1-1.73-5.75-3.84-12.35-6.31-17.7-10.8,1,.18,2,.33,2.94.55,8.78,2,12.19-.78,12.25-9.69,0-5.91-3.13-10.75-4.92-16C216.5,453.05,205.35,408,200.93,361.49c-.29-3.08-.05-4,3.53-3.42,14.58,2.31,24.26-3.75,29.33-17.79,3.52-9.73,3.19-19.64,1-29.51-6.07-27.78-20.18-50.25-44.23-66.06-15.71-10.33-32.18-19.37-48.77-28.13-9.89-5.22-15.19-1.6-15.19,9.56q0,111.23,0,222.47c0,9.63,3.87,17.34,11.09,23.48,3.63,3.09,7.89,4.93,12.43,3s4.33-6.58,4.32-10.82q-.09-55.25-.11-110.49c0-5.33.06-10.66,0-16,0-2.5.73-2.95,2.89-1.71,4.62,2.64,9.26,5.26,14,7.69,1.92,1,2.33,2.31,2.5,4.33,1.33,16,3.27,32,6.14,47.86a649.66,649.66,0,0,0,21.2,84.6c4.69,14.5,7.56,30.08,19.73,41.08-2,.49-3.44-.68-5-1.6-4.91-2.93-9.81-5.9-14.77-8.75-18.6-10.66-37.26-21.22-55.83-31.94-22.38-12.93-44.68-26-67-39Q47.59,422.6,17,405ZM114.27,303.5c0-1.84,0-3.67,0-5.5.11-26.32.16-52.64.39-79a28.29,28.29,0,0,0-11-23.41c-3.42-2.77-7.42-4.27-11.58-2.34-4,1.83-4.45,5.79-4.45,9.81,0,20.16.12,40.31-.09,60.47-.13,12.46,0,25-1.93,37.34-1.31,8.26-6.91,11.44-14.93,8.95-8.5-2.65-13.67-9.11-18.34-16.1-6.76-10.11-6.73-21.78-6.85-33.15-.28-26.65,0-53.3.2-80,.08-9.7-3.59-17.41-11.2-23.24-3.14-2.4-6.71-3.78-10.7-2.06s-4.54,5.55-4.54,9.22c0,32.13-1.54,64.26.22,96.39a94.63,94.63,0,0,0,18.22,51.2c11.82,16.37,25.58,30.35,47.07,33,2.89.36,2.45,2.18,2.43,3.93-.1,13.14-.12,26.29-1.46,39.4-1.13,11.11-7.49,15-18,10.8-9.58-3.84-14.72.11-13.65,10.52,1.41,13.81,11.8,23.32,28.15,25.76,13.67,2,23.62-4,28.31-17.07a49.76,49.76,0,0,0,2.63-13.66C115.45,371.11,113.88,337.29,114.27,303.5ZM326.61,345v78.95a26.51,26.51,0,0,0,.07,4c.3,2,1,4,3.33,4.44,2.1.42,3.39-.9,4.56-2.4,3.11-4,3-8.66,3-13.32q-.12-55.22-.26-110.43A37.56,37.56,0,0,0,335.38,295c-3.75-12-13.25-14.19-21.79-5-9.9,10.64-13.72,23.85-13.86,37.88-.37,37.48-.15,75-.17,112.44,0,1.17,0,2.34,0,3.5.11,1.9.57,3.71,2.6,4.4,2.23.75,3.79-.34,5.1-2.12,2.49-3.37,3.18-7.15,3.18-11.26,0-25.32,0-50.64.08-76,0-2.34-.24-4.65,2.35-6.07C317.24,350.44,321.49,347.91,326.61,345Zm-43.39,25.2v5.48q0,36,0,72c0,2.15.2,4.31.29,6.47a4,4,0,0,0,2.67,3.86c1.91.73,3.25-.5,4.31-1.76,2.77-3.31,3.76-7.21,3.76-11.54q-.09-66.7-.05-133.42a23.9,23.9,0,0,0-.1-3.49,4.51,4.51,0,0,0-2.81-3.84c-1.79-.62-3.21.46-4.34,1.79a13.73,13.73,0,0,0-3.37,7.58c-.84,7.48-.23,15.05-.17,22.43.05,5.4.13,8.77,0,12.81s-7.52,8.2-13.8,10.77c-4.59,1.87-4.39.65-4.34-2.94.13-10,0-20,0-30,0-2.56-.15-5.36-3.25-6-2.94-.57-4.29,1.8-5.63,4-2,3.3-2.11,6.91-2.11,10.57q-.06,65.46-.09,130.92c0,1.82.23,3.64.4,5.46s.93,3.28,2.76,3.74,3.18-.65,4.29-2a15.45,15.45,0,0,0,3.6-10.55c0-25.81,0-51.63.05-77.45,0-2.3-.33-4.54,2.38-6C272.68,376.5,277.46,373.53,283.22,370.17Zm111.62-44c4.93,1.19,6.94,4.24,8.74,7.47,5.18,9.29,6.05,19.47,6.24,29.82.1,5.48.63,10.95.93,16.43a3.55,3.55,0,0,0,2.37,3.46c1.71.64,2.83-.44,3.86-1.56a13.4,13.4,0,0,0,3.2-7.11c1.42-8-.1-15.94-.22-23.88-.19-11.83-2.26-23.45-8.66-33.77-1.26-2.05-.93-3.38.28-5.32a57.67,57.67,0,0,0,8.6-24c1.93-16.27.68-32.59,1.11-48.89,0-.66-.09-1.32-.13-2A4.35,4.35,0,0,0,418.5,233c-1.93-.8-3.13.62-4.17,1.94A17.5,17.5,0,0,0,410.78,246c0,11.49.08,23,0,34.48-.07,6-.55,12-3.88,17.23-1.67,2.63-3.36,5.65-7.24,5-3.67-.65-3.43-4.09-4.12-6.68a19.46,19.46,0,0,1-.35-5c0-9,0-18,0-27a112.57,112.57,0,0,0-.18-11.48c-.2-2-.68-4.6-3.31-5-2.46-.38-3.9,1.46-5,3.39-2.19,3.71-2.49,7.83-2.5,12Q384,327,384,390.9a20.77,20.77,0,0,0,.35,4.46c.35,1.58.7,3.4,2.73,3.77s3.48-.79,4.58-2.37c2.48-3.55,3.09-7.61,3.1-11.82q0-17.73.09-35.47C394.85,341.85,394.84,334.24,394.84,326.21Zm56.77-5.87c0,3,.16,6,0,9-.37,5.68-1.41,11.22-5.13,15.81-1.34,1.65-2.78,3.53-5.31,3s-3.45-2.74-3.87-5.19c-1.06-6.11-.88-12.27-1-18.43,0-2.74.69-6.28-3.15-6.87-3.43-.53-4.52,2.74-5.8,5.22a8.46,8.46,0,0,0-.73,2.35c-2,10.75-1.1,21.47.52,32.16a11.78,11.78,0,0,0,8.52,10.1c5,1.54,9.08-.68,12.53-4.25,5.44-5.61,8.75-12.43,11.05-19.76,4.28-13.59,2.94-27.63,3-41.53.07-9.22-2.67-12.7-11.5-15.61-1.73-.57-3.49-1.06-5.2-1.69-4.28-1.59-7.38-4.16-8.41-9-1.53-7.12-.7-14.21-.23-21.32.34-5.14.73-10.28,3.74-14.7,1.66-2.44,3.32-5.64,6.91-4.57,3.33,1,3.81,4.37,4,7.37.29,5.32.25,10.65.49,16,.12,2.6-.17,5.88,3.08,6.67,3.58.85,4.62-2.48,6-4.88a5.54,5.54,0,0,0,.89-2.3c.6-11.27,1.88-22.63-1.77-33.6-3.35-10-12.2-12.09-19.83-4.78-6.15,5.91-9.66,13.43-11.76,21.54-3.54,13.66-3.62,27.68-2.82,41.59.53,9.1,4.29,17.18,13.87,20.67C451.59,307.61,451.62,307.53,451.61,320.34Zm-109,30.13c0,14.82,0,29.64,0,44.46a41.52,41.52,0,0,0,1.89,11.74c1.41,4.7,3.68,8.75,8.79,9.89,5.48,1.22,9.64-1.57,13.11-5.5,14.34-16.25,14.38-36,13.51-55.91a5.76,5.76,0,0,0-.59-1.89c-1.38-3.39-3.66-3.68-6.21-1.46a10.6,10.6,0,0,0-3.5,7.47c-.43,6.8-.73,13.6-1,20.4a23.38,23.38,0,0,1-5.36,14.61c-1.41,1.68-3.19,3.18-5.59,2.35-2.06-.71-3-2.5-3.3-4.62a73,73,0,0,1-1-8.93c-.08-25.47-.25-51,.08-76.43.09-7.18.18-14.72,4.85-21,1.55-2.06,3.14-4.9,6.29-3.91s3.87,3.82,4,6.84c.3,6.31.68,12.62,1,18.94.1,2.15.69,4,2.95,4.62,2,.52,3.47-.76,4.62-2.29a13.54,13.54,0,0,0,3-7.77c.11-9.77,1-19.6-1.71-29.24-1.43-5.08-3.68-9.24-9.14-10.77s-9.25,1.36-12.67,5c-10.54,11.23-13.49,25.25-13.95,39.89C342.25,321.48,342.6,336,342.6,350.47Z" transform="translate(-17 -15)"/>
    <path d="M154.34,254.61c13.8,7.93,27.17,14.64,38.92,23.92,9.37,7.4,13.76,17.8,15.23,29.27,1.56,12.21-7.3,18.63-18.47,13.73s-22-11-32.71-16.91c-1.84-1-3.05-2.08-3-4.55C154.4,285.27,154.34,270.46,154.34,254.61Z" transform="translate(-17 -15)"/>
    <path d="M310.55,335c.25-9.28-.5-17.65,4-25.17,1.49-2.5,3.29-5.72,6.69-5.2,3.72.57,4.23,4.09,4.69,7.35,1.87,13,1.91,13-9.5,19.79C314.85,332.7,313.25,333.52,310.55,335Z" transform="translate(-17 -15)"/>
</svg>