<svg id="Layer_1" data-name="Layer 1" fill="#e2e7ec"
    xmlns="http://www.w3.org/2000/svg" viewBox="0 0 945.88 767.9">
    <defs>
        <style>.cls-1{fill:#fff0;}</style>
    </defs>
    <title>blender</title>
    <path class="cls-1" d="M601.56,778.91H4.64V11H950.52v767.9h-311c2-.32,3.9-.73,5.87-.95,10.42-1.13,20.93-1.74,31.27-3.41,52.55-8.48,101.21-27.06,144.61-58.1,66.48-47.56,110-110.42,124.54-191.71,8.83-49.31,3.62-97.54-14-144.39-20.35-54.27-55.29-97.7-100.74-132.79C735,173.35,638.43,99.77,542.38,25.48,520.05,8.21,488.13,8,466.65,22.25,455,30,447.1,40.42,447.89,55.33c.6,11.2,7.33,19,15.53,25.69q57.69,47.08,115.43,94.12c1.19,1,2.27,2.1,4.14,3.85h-7q-177,0-353.92,0a186.61,186.61,0,0,0-22.94.94c-23.64,2.95-42.55,13.76-54.51,35-10.37,18.38-4.34,40,13.88,50.64,9.63,5.63,20.17,7.44,31.18,7.43q91,0,182,0h6.56c-2.41,2-3.73,3.1-5.12,4.16Q206.44,405.1,39.74,533c-13.66,10.47-24.28,23.17-30.22,39.5-14.06,38.65,10.19,73,51.22,72.42,20.35-.29,37.78-8.28,53.3-21L280.73,487.52c4.7-3.84,9.43-7.65,15-12.17-.18,3.77-.2,6.38-.45,9-1.68,17.4-.28,34.66,3.08,51.7a260.54,260.54,0,0,0,40.24,96.6c56.92,83.89,137.29,129.5,236.76,143.32C584.06,777.15,592.83,777.93,601.56,778.91Z" transform="translate(-4.64 -11.01)"/>
    <path d="M601.56,778.91c-8.73-1-17.5-1.76-26.2-3-99.47-13.82-179.84-59.43-236.76-143.32A260.54,260.54,0,0,1,298.36,536c-3.36-17-4.76-34.3-3.08-51.7.25-2.59.27-5.2.45-9-5.57,4.52-10.3,8.33-15,12.17L114,624c-15.52,12.7-32.95,20.69-53.3,21-41,.59-65.28-33.77-51.22-72.42,5.94-16.33,16.56-29,30.22-39.5q166.72-127.9,333.38-255.89c1.39-1.06,2.71-2.2,5.12-4.16h-6.56q-91,0-182,0c-11,0-21.55-1.8-31.18-7.43-18.22-10.68-24.25-32.26-13.88-50.64,12-21.2,30.87-32,54.51-35a186.61,186.61,0,0,1,22.94-.94q177-.08,353.92,0h7c-1.87-1.75-3-2.88-4.14-3.85Q521.15,128.07,463.42,81c-8.2-6.7-14.93-14.49-15.53-25.69C447.1,40.42,455,30,466.65,22.25c21.48-14.25,53.4-14,75.73,3.23,96,74.29,192.66,147.87,288.78,222.08,45.45,35.09,80.39,78.52,100.74,132.79,17.57,46.85,22.78,95.08,14,144.39C931.31,606,887.79,668.89,821.31,716.45c-43.4,31-92.06,49.62-144.61,58.1-10.34,1.67-20.85,2.28-31.27,3.41-2,.22-3.92.63-5.87.95Zm21.91-506C601,273,581,275.27,561.57,281c-56.92,16.79-100.79,49.81-126.52,104.26-16.82,35.59-20.05,73-10.37,111.08,11.8,46.45,39.68,81.62,79.51,107.34,40.88,26.39,86,36.37,134.35,32.51,46.42-3.71,87.65-20.25,122.56-51.28,37.78-33.59,59.4-75.6,60.3-126.47,1-57.85-23.44-104.44-68.1-140.29C714.9,287.33,670.25,273.44,623.47,272.87Z" transform="translate(-4.64 -11.01)"/>
    <path class="cls-1" d="M623.47,272.87c46.78.57,91.43,14.46,129.83,45.28C798,354,822.43,400.59,821.4,458.44c-.9,50.87-22.52,92.88-60.3,126.47-34.91,31-76.14,47.57-122.56,51.28-48.31,3.86-93.47-6.12-134.35-32.51-39.83-25.72-67.71-60.89-79.51-107.34-9.68-38.06-6.45-75.49,10.37-111.08,25.73-54.45,69.6-87.47,126.52-104.26C581,275.27,601,273,623.47,272.87Zm-1.25,291.85c41.69.12,77.59-15.59,103.12-43.7a107.37,107.37,0,0,0,1.11-142.79c-22-25-49.57-39.74-82.37-43.5-51.52-5.9-94.67,10.16-126.22,52.47-27.12,36.37-26.4,88.84.91,125.05C545.5,547.68,582,563.33,622.22,564.72Z" transform="translate(-4.64 -11.01)"/>
    <path d="M622.22,564.72c-40.25-1.39-76.72-17-103.45-52.47-27.31-36.21-28-88.68-.91-125,31.55-42.31,74.7-58.37,126.22-52.47,32.8,3.76,60.42,18.5,82.37,43.5A107.37,107.37,0,0,1,725.34,521C699.81,549.13,663.91,564.84,622.22,564.72Z" transform="translate(-4.64 -11.01)"/>
</svg>